<?xml version="1.0" encoding="utf-8"?>
<!-- Generator: Adobe Illustrator 24.0.2, SVG Export Plug-In . SVG Version: 6.00 Build 0)  -->
<svg version="1.1" id="Layer_1" xmlns="http://www.w3.org/2000/svg" xmlns:xlink="http://www.w3.org/1999/xlink" x="0px" y="0px"
	 viewBox="0 0 600 389" style="enable-background:new 0 0 600 389;" xml:space="preserve">
<style type="text/css">
	.st0{fill:#F08E83;}
	.st1{fill:#F3EBA9;}
	.st2{fill:#F2A99D;}
	.st3{fill:#E7A101;}
</style>
<g>
	<path class="st0" d="M497.74,276.1c0.79,0.78,1.39,1.77,1.68,2.93c2.11,8.64,8.7,27.13,26.5,27.13v0h12.05v0h0
		c17.8,0,24.4-18.5,26.5-27.13c0.3-1.23,0.95-2.28,1.81-3.07C534.87,271.1,508.88,274.09,497.74,276.1z"/>
	<path class="st1" d="M442.34,239.22c0.41,6.38,2.83,12.18,6.6,16.72l15.91-16.72H442.34z"/>
	<path class="st1" d="M463.83,245.8l-12.27,12.9c4.32,3.96,9.84,6.51,15.91,6.94v-3.45c-1.95-4.35-3.2-9.41-3.66-15.1
		C463.77,246.65,463.81,246.23,463.83,245.8z"/>
	<path class="st1" d="M479.91,228.89l-6.13,6.45h22.51c-0.4-6.22-2.69-12.04-6.59-16.73L479.91,228.89z"/>
	<path class="st1" d="M471.17,208.93v23.66l15.92-16.73C482.62,211.76,477.08,209.34,471.17,208.93z"/>
	<path class="st1" d="M448.94,218.62c-3.77,4.54-6.19,10.35-6.6,16.72h22.52L448.94,218.62z"/>
	<path class="st1" d="M467.47,232.59v-23.66c-6.07,0.43-11.59,2.98-15.91,6.94L467.47,232.59z"/>
	<path class="st2" d="M528.97,256.62c-27.05-7.54-49.65-3.13-56.99-1l1.93,4.61c3.23,6.81,9.24,12.99,20.4,14.23
		c1.31,0.15,2.5,0.74,3.42,1.64c11.15-2.02,37.13-5,68.54-0.14c0.9-0.82,2.04-1.36,3.29-1.5c14.8-1.65,20.56-11.96,22.76-20.94
		c-6,2.26-19.8,6.62-37.15,6.62C547.07,260.14,538.19,259.19,528.97,256.62z"/>
	<g>
		<path class="st3" d="M599.96,247.09c0.23-2.89-0.7-5.78-2.57-7.91c-1.85-2.12-4.49-3.34-7.23-3.34h-57.18h-2.19h-30.8
			c-0.31-7.44-3-14.41-7.69-19.96l0.06-0.07l-1.31-1.37l-1.31-1.37l-0.06,0.07c-5.16-4.82-11.62-7.63-18.51-8.06v-0.09h-1.85h-1.85
			v0.1c-15.47,0.97-27.87,14-28.8,30.27h-0.09v1.94v1.94h0.09c0.96,16.91,14.32,30.36,30.65,30.36h1.85v-1.08
			c4.89,6.52,12.01,10.54,20.96,11.54c1.05,0.12,1.89,0.86,2.14,1.89c2.21,9.04,9.34,29.57,28.8,31.21v56.19l-15.18,4.94
			c-2.37,0.77-3.82,3.2-3.45,5.78c0.37,2.58,2.44,4.45,4.92,4.45h17.41h10.24h17.41c2.48,0,4.55-1.87,4.92-4.45
			c0.37-2.58-1.08-5.01-3.45-5.78l-15.18-4.94v-56.19c19.46-1.64,26.6-22.17,28.8-31.21c0.25-1.03,1.09-1.77,2.14-1.89
			C588.11,278.21,598.43,266.2,599.96,247.09z M448.94,218.62l15.91,16.72h-22.52C442.75,228.96,445.17,223.16,448.94,218.62z
			 M442.34,239.22h22.52l-15.91,16.72C445.17,251.41,442.75,245.6,442.34,239.22z M467.47,265.64c-6.07-0.43-11.59-2.98-15.91-6.94
			l12.27-12.9c-0.02,0.43-0.06,0.86-0.02,1.29c0.46,5.7,1.71,10.75,3.66,15.1V265.64z M467.47,232.59l-15.91-16.72
			c4.32-3.96,9.84-6.51,15.91-6.94V232.59z M489.7,218.61c3.9,4.69,6.2,10.52,6.59,16.73h-22.51l6.13-6.45L489.7,218.61z
			 M471.17,208.93c5.91,0.42,11.46,2.83,15.92,6.93l-15.92,16.73V208.93z M571.26,276.18c-2.56,0.28-4.7,2.17-5.34,4.78
			c-2.21,9.04-9.1,28.39-27.73,28.39h-1.18v61.84c0,0.59,0.37,1.11,0.9,1.29l16.88,5.49c1.4,0.46,1.09,2.64-0.38,2.64h-17.41h-10.24
			h-17.41c-1.47,0-1.78-2.18-0.38-2.64l16.88-5.49c0.54-0.17,0.9-0.7,0.9-1.29v-61.84h-1.18c-18.63,0-25.53-19.36-27.73-28.39
			c-0.64-2.62-2.78-4.5-5.34-4.78c-11.68-1.3-17.96-7.76-21.35-14.89c-0.75-1.58-1.36-3.19-1.85-4.79c-1.07-3.49-1.6-6.91-1.83-9.74
			c-0.16-2.01,0.57-3.86,1.83-5.16c0.25-0.26,0.52-0.51,0.81-0.72c0.33-0.24,0.67-0.45,1.04-0.62c0.75-0.34,1.57-0.54,2.44-0.54
			h57.18h2.19h57.18c3.61,0,6.42,3.25,6.12,7.03C595.48,256.71,591.19,273.96,571.26,276.18z"/>
	</g>
</g>
<g>
	<path class="st3" d="M87.23,145.17c0.93-0.49,1.83-0.53,2.68-0.12c0.85,0.41,1.52,1.1,1.98,2.08c0.47,0.98,0.47,1.88,0,2.7
		c-3.27,9.15-7.31,17.49-12.13,25c-1.25,2.29-2.88,4.66-4.9,7.11c-0.47,0.49-0.93,1.06-1.4,1.72
		c-9.02,10.79-18.27,16.18-27.76,16.18c-15.08,0-26.82-11.6-35.22-34.81C3.5,145.09,0,120.41,0,90.99
		c0-28.11,5.28-50.42,15.86-66.93c4.35-6.86,9.37-12.22,15.04-16.06c5.67-3.84,11.39-5.76,17.14-5.76c6.84,0,12.21,3.35,16.09,10.05
		c3.89,6.7,5.83,13.73,5.83,21.08c0,0.98-0.35,1.84-1.05,2.57c-0.7,0.74-1.6,1.1-2.68,1.1c-0.62,0-1.21-0.16-1.75-0.49
		c-0.55-0.33-0.97-0.77-1.28-1.35c-0.31-0.57-0.47-1.18-0.47-1.84c0-1.8-0.16-3.68-0.47-5.64c-0.78-3.1-1.63-5.55-2.57-7.35
		c-0.93-1.8-2.26-3.27-3.97-4.41c-1.71-1.14-3.89-1.72-6.53-1.72c-2.33,0-5.44,1.19-9.33,3.55c-3.89,2.37-7.7,6.17-11.43,11.4
		c-9.8,14.06-14.69,33.83-14.69,59.33c0,29.26,3.3,53.04,9.91,71.34c6.61,18.31,15.35,27.46,26.24,27.46c7,0,13.45-3.43,19.36-10.3
		c6.37-8.17,11.74-18.14,16.09-29.91C85.68,146.31,86.3,145.66,87.23,145.17z"/>
	<path class="st3" d="M163.04,145.17c2.18-1.14,3.81-0.61,4.9,1.59c1.09,2.21,0.54,3.96-1.63,5.27c-9.95,5.39-20.37,6.54-31.25,3.43
		c0.15,0.82,0.23,1.64,0.23,2.45c0,5.39-0.78,10.3-2.33,14.71v0.25c-0.62,2.13-1.48,4.17-2.57,6.13
		c-4.51,8.01-11.12,12.01-19.83,12.01c-8.24,0-14.77-3.92-19.59-11.77c-4.04-6.7-6.06-14.79-6.06-24.27c0-5.72,1.4-11.77,4.2-18.14
		c2.8-6.37,6.45-10.38,10.96-12.01c0.47-0.16,0.85-0.25,1.17-0.25c0.93,0,1.79,0.17,2.57,0.49c0.31-0.16,0.7-0.25,1.17-0.25
		c6.37-1.14,12.67,0.98,18.89,6.37c4.67,4.09,7.93,9.4,9.8,15.93C143.91,150.89,153.71,150.23,163.04,145.17z M126.18,170.17
		c1.24-3.76,1.87-7.84,1.87-12.26c0-1.8-0.16-3.59-0.47-5.39c-0.78-0.33-1.56-0.65-2.33-0.98c-7.46-3.92-13.76-9.07-18.89-15.44
		h-0.23c-0.62,0.66-1.48,1.76-2.57,3.31c-1.09,1.55-2.26,4.13-3.5,7.72c-1.25,3.6-1.87,7.35-1.87,11.28c0,7.19,1.87,12.99,5.6,17.41
		c3.73,4.41,7.7,6.62,11.9,6.62c0.62,0,1.4-0.25,2.33-0.74c0.62-0.49,1.24-0.98,1.87-1.47c2.18-1.8,3.96-4.17,5.36-7.11
		c0.15-0.32,0.23-0.65,0.23-0.98c0.31-0.49,0.54-0.98,0.7-1.47C126.18,170.5,126.18,170.34,126.18,170.17z M119.19,136.83
		c-1.71-1.47-3.58-2.7-5.6-3.68c2.8,3.27,6.06,6.13,9.8,8.58C122.14,139.94,120.74,138.3,119.19,136.83z"/>
	<path class="st3" d="M227.29,145.17c2.1,1.15,2.6,2.86,1.52,5.15c-2.18,4.58-4.2,8.7-6.06,12.38c-1.87,3.68-4.24,7.76-7.11,12.26
		c-2.88,4.5-5.68,8.25-8.4,11.28c-2.72,3.03-5.75,5.56-9.1,7.6c-3.35,2.05-6.73,3.06-10.15,3.06c-5.29,0-9.95-1.8-13.99-5.39
		c-4.05-3.59-7.08-8.17-9.1-13.73c-2.02-5.56-3.5-10.83-4.43-15.81c-0.93-4.98-1.4-9.6-1.4-13.85c0-7.84,2.02-14.42,6.06-19.73
		c4.04-5.31,9.1-7.97,15.16-7.97c5.13,0,9.33,1.88,12.6,5.64c2.49,2.62,3.88,6.21,4.2,10.79c0,0.33,0,0.66,0,0.98v0.25
		c0,0.33,0,0.57,0,0.74c0,1.14-0.35,2.08-1.05,2.82c-0.7,0.74-1.52,1.1-2.45,1.1c-0.62,0-1.21-0.2-1.75-0.61
		c-0.55-0.41-0.97-0.9-1.28-1.47c-0.31-0.57-0.47-1.18-0.47-1.84v-0.25v-0.25c-0.16-2.78-0.93-5.15-2.33-7.11
		c-0.93-0.65-1.95-0.98-3.03-0.98c-2.8,0-5.44,1.59-7.93,4.78c-2.49,3.19-3.73,7.56-3.73,13.12c0,5.39,0.58,10.91,1.75,16.55
		c1.17,5.64,3.26,10.79,6.3,15.44c3.03,4.66,6.57,6.99,10.61,6.99c2.64,0,5.63-1.72,8.98-5.15c3.34-3.43,6.57-7.72,9.68-12.87
		c3.11-5.15,5.6-9.44,7.46-12.87c1.87-3.43,3.42-6.53,4.66-9.32C223.59,144.6,225.19,144.02,227.29,145.17z"/>
	<path class="st3" d="M325.6,145.17c0.62,0.16,1.13,0.49,1.52,0.98c0.39,0.49,0.62,1.06,0.7,1.72c0.08,0.66,0.04,1.31-0.12,1.96
		c-2.49,7.19-5.29,14.06-8.4,20.59c-0.78,1.63-1.71,3.35-2.8,5.15c-0.78,1.47-1.48,2.78-2.1,3.92
		c-8.24,13.57-16.64,20.35-25.19,20.35c-9.18,0-17.57-5.06-25.19-15.2c-5.44-7.35-9.8-16.75-13.06-28.19
		c-3.73,9.97-4.98,22.15-3.73,36.53c0.47,3.27-0.78,5.39-3.73,6.37c-0.62,0.32-1.32,0.49-2.1,0.49c-1.56,0-3.11-0.57-4.67-1.72
		c-1.56-1.14-2.65-2.61-3.27-4.41v-0.25c-4.51-12.26-8.4-25.82-11.66-40.69c0-0.16-0.08-0.41-0.23-0.74
		c-5.44-24.68-8.16-45.92-8.16-63.74c0-25,2.26-44.7,6.76-59.08c2.65-8.33,6.06-14.79,10.26-19.37C235.26,4.62,240.94,2,247.47,2
		c9.17,0,15.94,5.56,20.29,16.67c3.11,8.01,4.67,18.47,4.67,31.38v1.23v0.49h-0.23c-0.31,19.29-5.44,39.47-15.39,60.55
		c-6.53,13.89-13.84,25.41-21.92,34.57c1.55,6.7,3.27,13.57,5.13,20.59c1.71-13.89,6.06-24.92,13.06-33.09
		c7.31-8.66,15.86-12.99,25.66-12.99c3.11,0,5.83,0.57,8.16,1.72c2.33,1.15,4.08,2.82,5.25,5.03c1.17,2.21,1.83,4.86,1.98,7.97
		c0.15,5.23-1.79,9.56-5.83,12.99c-5.29,4.58-13.06,6.46-23.32,5.64c8.71,22.55,18.11,33.83,28.22,33.83c2.8,0,5.79-1.72,8.98-5.15
		c3.19-3.43,6.03-7.52,8.51-12.26c0.62-0.98,1.17-2.04,1.63-3.19c0.15-0.32,0.31-0.65,0.47-0.98c0.15,0,0.23-0.08,0.23-0.25
		c2.95-6.04,5.6-12.5,7.93-19.37c0.31-0.98,0.93-1.72,1.87-2.21C323.74,144.68,324.67,144.68,325.6,145.17z M233.01,137.81
		c6.53-8.33,12.36-17.9,17.49-28.68c9.48-20.26,14.38-39.47,14.69-57.61c0-4.25-0.31-8.62-0.93-13.12
		c-0.62-4.49-1.48-8.74-2.57-12.75c-1.09-4-2.53-7.31-4.32-9.93c-1.79-2.61-3.7-3.92-5.71-3.92c-7.31,0-13.18,6.66-17.61,19.98
		c-4.43,13.32-6.65,30.77-6.65,52.34C227.41,100.79,229.27,118.69,233.01,137.81z M260.76,146.64c3.58,0.49,7.27,0.37,11.08-0.37
		c3.81-0.74,6.65-1.92,8.51-3.55c1.4-1.31,2.1-2.78,2.1-4.41c0-0.82-0.31-1.47-0.93-1.96c-1.71-1.63-4.98-2.04-9.8-1.23
		c-5.6,0.82-10.73,4.41-15.39,10.79C257.88,146.23,259.36,146.48,260.76,146.64z"/>
	<path class="st3" d="M417.03,82.65c1.87,1.64,2.02,3.43,0.47,5.39c-0.78,0.98-1.71,1.47-2.8,1.47c-0.78,0-1.48-0.33-2.1-0.98
		c-3.42-2.78-7.35-4.94-11.78-6.5c-4.43-1.55-8.59-2.53-12.48-2.94c-3.89-0.41-8.86-0.37-14.93,0.12
		c-6.06,0.49-10.89,1.06-14.46,1.72c-3.58,0.66-8.71,1.56-15.39,2.7c-6.07,1.31-10.65,2.21-13.76,2.7c0,1.96,0,3.84,0,5.64
		c0,25.99,1.79,47.31,5.36,63.98c4.51,21.25,11.27,31.87,20.29,31.87c1.87,0,3.65-0.57,5.36-1.72c1.71-1.14,3.34-2.82,4.9-5.03
		c1.55-2.21,2.76-4.08,3.62-5.64c0.85-1.55,1.9-3.63,3.15-6.25c2.02-4.41,4.58-10.79,7.7-19.12c0.47-1.31,0.85-2.29,1.17-2.94
		c0.31-0.98,0.89-1.67,1.75-2.08c0.85-0.41,1.75-0.41,2.68,0c0.93,0.41,1.59,1.1,1.98,2.08c0.39,0.98,0.43,1.96,0.12,2.94
		c-0.16,0.49-0.55,1.39-1.17,2.7c-2.02,5.39-3.62,9.6-4.78,12.62c-1.17,3.03-2.96,7.07-5.36,12.13c-2.41,5.07-4.67,8.95-6.77,11.65
		c-2.1,2.7-4.66,5.11-7.7,7.23c-3.03,2.12-6.1,3.19-9.21,3.19c-14.62,0-24.96-12.91-31.02-38.73c-4.04-17.49-6.06-39.96-6.06-67.42
		c0-1.8,0-3.59,0-5.39c-3.11,0.33-5.98,0.49-8.63,0.49c-12.9,0-23.01-3.43-30.32-10.3c-2.33-2.12-2.64-4.25-0.93-6.37
		c1.4-1.47,3.96-1.72,7.7-0.74c2.65,0.82,4.43,1.64,5.36,2.45c5.6,4.74,14.62,6.95,27.06,6.62c0.47-17.65,2.33-32.19,5.6-43.64
		c0.47-1.8,1.55-3.19,3.26-4.17c1.71-0.98,3.5-1.23,5.37-0.74c1.55,0.49,2.83,1.51,3.85,3.06c1.01,1.56,1.28,3.47,0.82,5.76
		c-2.49,12.1-4.12,24.76-4.9,38c2.8-0.49,6.84-1.23,12.13-2.21c7.15-1.31,12.63-2.29,16.44-2.94c3.81-0.65,8.94-1.23,15.39-1.72
		c6.45-0.49,11.82-0.45,16.09,0.12c4.28,0.57,8.86,1.76,13.76,3.55C408.75,77.1,413.14,79.55,417.03,82.65z"/>
	<path class="st3" d="M470.79,145.17c0.85-0.49,1.75-0.57,2.68-0.25c0.93,0.33,1.63,0.94,2.1,1.84c0.47,0.9,0.54,1.92,0.23,3.06
		c-1.87,6.37-3.81,11.93-5.83,16.67v0.25c-1.4,3.11-2.8,5.88-4.2,8.34c-6.38,11.93-13.69,17.9-21.93,17.9
		c-4.51,0-8.32-1.8-11.43-5.39c-4.82-5.55-7.85-15.28-9.1-29.17c-2.65,8.5-5.05,15.04-7.23,19.61c-4.82,9.97-9.95,14.95-15.39,14.95
		c-5.29,0-9.8-2.12-13.53-6.37c-4.66-5.55-7-13.56-7-24.02c0-12.58,2.26-22.47,6.76-29.66c4.82-7.68,11.5-11.52,20.06-11.52
		c0.31,0,0.7,0,1.17,0c0.62,0.16,1.32,0.25,2.1,0.25c4.2,0.66,8.63,3.27,13.3,7.84c0.93-4.08,3.03-5.96,6.3-5.64
		c1.87,0.16,3.58,1.23,5.13,3.19c1.55,1.96,2.25,4.01,2.1,6.13c-0.62,7.35-0.43,16.39,0.58,27.09c1.01,10.71,3.07,17.86,6.18,21.45
		c0.93,1.15,2.02,1.72,3.27,1.72c4.97,0,10.11-5.96,15.39-17.9c2.33-5.06,4.51-11.11,6.53-18.14
		C469.36,146.39,469.94,145.66,470.79,145.17z M421,141.49c0.47-1.47,0.78-2.53,0.93-3.19l-0.47-0.49c-2.96-3.1-5.29-5.31-7-6.62
		c-1.71-1.31-3.58-2.04-5.6-2.21c-0.16,0-0.31,0-0.47,0c-0.31,0-0.55,0-0.7,0c-3.42,0-6.53,3.15-9.33,9.44
		c-2.8,6.29-4.2,14.02-4.2,23.17c0,6.7,0.89,11.85,2.68,15.44c1.79,3.6,3.85,5.39,6.18,5.39c1.71,0,3.73-2.29,6.06-6.86
		c0.15-0.16,0.31-0.41,0.47-0.74c0.47-0.98,0.93-2.04,1.4-3.19C413.45,165.76,416.8,155.71,421,141.49z"/>
	<path class="st3" d="M517.56,145.04c0.93-0.41,1.83-0.41,2.68,0c0.85,0.41,1.48,1.1,1.87,2.08c0.39,0.98,0.43,1.96,0.12,2.94
		c-3.58,8.83-7.7,16.83-12.36,24.02v0.25c-0.78,1.14-1.48,2.21-2.1,3.19c-7.62,10.46-15.08,15.69-22.39,15.69
		c-3.42,0-6.45-1.55-9.1-4.66c-2.96-3.43-5.17-8.83-6.65-16.18c-1.48-7.35-2.17-14.62-2.1-21.82c0.08-7.19,0.43-13.97,1.05-20.35
		c0.31-2.12,1.01-3.68,2.1-4.66c1.09-0.98,2.33-1.39,3.73-1.23c1.4,0.16,2.68,0.94,3.85,2.33c1.17,1.39,2.06,3.03,2.68,4.9
		c0.62,1.88,0.85,3.64,0.7,5.27c-0.78,7.35-0.7,15.9,0.23,25.62c0.93,9.73,2.8,16.22,5.6,19.49c0.78,0.98,1.63,1.47,2.57,1.47
		c1.4,0,3.38-1.14,5.95-3.43c2.57-2.29,5.25-5.55,8.05-9.81v-0.24c4.35-6.7,8.16-14.3,11.43-22.8
		C515.92,146.15,516.62,145.45,517.56,145.04z M475.11,113.79c-3.73-1.63-5.36-5.23-4.9-10.79c0.31-3.1,1.24-5.43,2.8-6.99
		c1.55-1.55,3.18-2,4.9-1.35c2.02,0.98,3.5,2,4.43,3.06c0.93,1.06,1.52,2.37,1.75,3.92c0.23,1.55,0.12,3.47-0.35,5.76
		c-0.62,3.76-1.63,6.05-3.03,6.86C479.31,115.1,477.44,114.93,475.11,113.79z"/>
	<path class="st3" d="M580.88,145.04c0.85-0.41,1.75-0.41,2.68,0c0.93,0.41,1.59,1.1,1.98,2.08c0.39,0.98,0.43,1.96,0.12,2.94
		c-3.42,8.83-6.84,16.59-10.26,23.29v0.24c-1.4,2.78-2.8,5.23-4.2,7.35c-7.78,12.42-15.55,18.63-23.32,18.63
		c-12.29,0-22.39-12.83-30.32-38.49c-6.68-21.57-10.03-44.13-10.03-67.66c0-25.5,2.26-46,6.76-61.53
		c2.64-9.15,5.98-16.18,10.03-21.08C529.14,4.94,534.89,2,541.58,2c9.17,0,15.86,5.56,20.06,16.67c0.78,1.8,1.48,3.84,2.1,6.13
		c0.15,0.82,0.31,1.56,0.47,2.21v0.25c1.4,6.54,2.1,14.14,2.1,22.8c0,19.78-5.13,40.53-15.39,62.27
		c-6.84,14.38-14.38,26.23-22.62,35.55c0.62,2.78,1.32,5.39,2.1,7.84c2.95,10.14,6.33,18.02,10.15,23.66
		c3.81,5.64,7.81,8.46,12.01,8.46c2.18,0,4.86-1.8,8.05-5.39c3.19-3.59,6.1-7.84,8.75-12.75v-0.24c3.27-6.21,6.53-13.64,9.8-22.31
		C579.44,146.15,580.02,145.45,580.88,145.04z M521.75,91.97c0,15.53,1.48,31.13,4.43,46.82c6.84-8.34,12.98-18.22,18.43-29.66
		c9.8-20.92,14.69-40.61,14.69-59.08c0-8.01-0.7-15.03-2.1-21.08v-0.25c-0.93-4.57-2.65-8.33-5.13-11.28
		c-2.49-2.94-5.21-4.41-8.16-4.41c-6.07,0-11.28,6.78-15.63,20.35C523.93,46.95,521.75,66.47,521.75,91.97z"/>
</g>
<g>
	<path class="st3" d="M118.86,338.11c0.83-0.14,1.56,0.11,2.18,0.76c0.62,0.66,0.97,1.42,1.04,2.29c0.07,0.87-0.21,1.67-0.83,2.4
		c-0.62,0.73-1.35,1.09-2.18,1.09c-6.23,0.29-12.18,0.8-17.86,1.53c0.14,0.87,0.21,1.82,0.21,2.84c0,12.8-4.71,22.7-14.12,29.68
		c-7.2,5.53-15.37,8.29-24.5,8.29c-4.15,0-8.2-0.84-12.15-2.51c-3.95-1.67-7.1-3.82-9.45-6.44c-1.66-1.75-2.77-3.71-3.32-5.89
		c-0.28-0.87-0.42-1.74-0.42-2.62c-0.14-0.58-0.14-1.16,0-1.75c0.42-7.27,8.31-13.75,23.67-19.42c7.34-2.62,15.85-4.87,25.54-6.77
		c-1.94-2.91-4.57-5.57-7.89-7.97c-3.32-2.4-7.96-5.35-13.91-8.84c-10.11-5.96-17.44-10.98-22.01-15.06
		c-0.69-0.58-1.32-1.09-1.87-1.53c-8.72-7.86-13.08-18.33-13.08-31.43c0-15.28,3.74-29.17,11.21-41.68
		c8.44-13.82,18.76-20.73,30.94-20.73c8.03,0,15.16,3.86,21.39,11.57c3.87,4.66,6.78,10.11,8.72,16.37
		c0.69,2.18,1.11,4.15,1.25,5.89c1.11,6.11,1.25,12.22,0.42,18.33c-0.14,0.87-0.59,1.57-1.35,2.07c-0.76,0.51-1.56,0.69-2.39,0.54
		c-0.83-0.14-1.52-0.58-2.08-1.31c-0.55-0.73-0.76-1.53-0.62-2.4c0.83-5.24,0.83-10.48,0-15.71c-0.14-0.14-0.21-0.29-0.21-0.44
		c-0.28-1.45-0.55-2.76-0.83-3.93c-1.52-5.24-4.19-9.96-7.99-14.19c-3.81-4.22-8.62-6.33-14.43-6.33c-3.19,0-6.61,1.31-10.28,3.93
		c-3.67,2.62-7.03,6.26-10.07,10.91c-7.47,11.06-11.21,23.64-11.21,37.76c0,3.64,0.69,7.13,2.08,10.48
		c1.38,3.35,2.97,6.19,4.78,8.51c1.8,2.33,4.43,4.84,7.89,7.53c3.46,2.69,6.33,4.77,8.62,6.22c2.28,1.46,5.57,3.49,9.86,6.11
		c5.95,3.49,10.17,6.19,12.67,8.07c5.4,3.2,9.34,6.91,11.84,11.13c0.83,1.31,1.52,2.69,2.08,4.15
		C106.12,338.92,112.35,338.41,118.86,338.11z M43.69,368.23c0,0.58,0.07,1.17,0.21,1.75c0.55,1.75,2.08,3.35,4.57,4.8
		c4.15,2.48,9.14,3.71,14.95,3.71c7.75,0,14.08-2.43,19-7.31c4.91-4.87,7.37-11.24,7.37-19.1c0-1.45-0.14-2.84-0.42-4.15
		c-9.69,1.6-18.14,3.75-25.33,6.44c-7.2,2.69-12.35,5.2-15.47,7.53C45.46,364.23,43.83,366.34,43.69,368.23z"/>
	<path class="st3" d="M205.24,338.33c0.83-0.44,1.66-0.47,2.49-0.11c0.83,0.37,1.42,0.95,1.77,1.75c0.34,0.8,0.38,1.64,0.1,2.51
		c-2.63,7.71-6.51,15.86-11.63,24.44c-1.8,3.05-3.6,5.67-5.4,7.86c-5.81,8.15-11,12.22-15.57,12.22c-3.88,0-6.44-3.56-7.68-10.69
		c-0.56-3.35-0.97-9.53-1.25-18.55c-0.42-10.33-1.04-17.38-1.87-21.17c-0.83-4.8-1.94-7.27-3.32-7.42c-1.25,0.87-3.05,3.71-5.4,8.51
		c0,0.29-0.07,0.58-0.21,0.87c-1.52,3.64-3.53,8.73-6.02,15.28c-0.69,1.89-1.25,3.2-1.66,3.93c-5.81,15.57-10.04,24.66-12.67,27.28
		c-0.55,0.73-1.25,1.23-2.08,1.53c-0.14,0-0.28,0.07-0.42,0.22c-0.55,0.14-1.11,0.22-1.66,0.22c-0.69,0-1.38-0.15-2.08-0.44
		c-2.49-0.87-4.15-2.55-4.98-5.02v-0.22c-4.02-10.91-7.48-22.99-10.38-36.23c0-0.14-0.07-0.36-0.21-0.66
		c-4.84-21.97-7.27-40.88-7.27-56.74c0-22.26,2.01-39.79,6.02-52.6c2.36-7.42,5.4-13.17,9.14-17.24c4.29-4.65,9.34-6.98,15.16-6.98
		c8.17,0,14.19,4.95,18.07,14.84c2.77,7.13,4.15,16.44,4.15,27.93v1.09v0.44c-0.42,17.17-5.05,35.14-13.91,53.91
		c-5.81,12.37-12.32,22.63-19.52,30.77c2.35,10.48,5.4,21.9,9.14,34.26c0.28-0.58,0.62-1.23,1.04-1.97c1.38-3.2,3.74-9.17,7.06-17.9
		c0.28-0.87,0.62-1.75,1.04-2.62c0-0.14,0.03-0.29,0.1-0.44c0.07-0.14,0.1-0.29,0.1-0.44c2.21-5.67,4.01-10.26,5.4-13.75
		c2.91-6.69,5.53-11.68,7.89-14.95c2.35-3.27,4.78-4.91,7.27-4.91c5.81,0,9.76,5.02,11.84,15.06c1.11,5.09,1.94,13.68,2.49,25.75
		c0.28,6.26,0.55,10.55,0.83,12.88c0.28,2.48,0.62,4.22,1.04,5.24c1.38-0.73,3.11-2.4,5.19-5.02c1.38-1.89,3.11-4.51,5.19-7.86
		c4.84-8.15,8.51-15.79,11-22.92C203.85,339.42,204.41,338.77,205.24,338.33z M125.3,331.78c5.81-7.42,11-15.93,15.57-25.53
		c8.44-18.04,12.8-35.14,13.08-51.29c0-8.29-1.11-16.26-3.32-23.9c-2.22-7.64-5.12-11.46-8.72-11.46c-6.51,0-11.73,5.93-15.68,17.79
		c-3.95,11.86-5.92,27.39-5.92,46.59C120.31,298.83,121.97,314.76,125.3,331.78z"/>
	<path class="st3" d="M282.17,338.33c0.76-0.44,1.56-0.51,2.39-0.22c0.83,0.29,1.45,0.84,1.87,1.64c0.42,0.8,0.48,1.71,0.21,2.73
		c-1.66,5.67-3.39,10.62-5.19,14.84v0.22c-1.25,2.77-2.49,5.24-3.74,7.42c-5.68,10.62-12.18,15.93-19.52,15.93
		c-4.02,0-7.41-1.6-10.17-4.8c-4.29-4.94-6.99-13.6-8.1-25.97c-2.36,7.57-4.5,13.39-6.44,17.46c-4.29,8.88-8.86,13.31-13.7,13.31
		c-4.71,0-8.72-1.89-12.04-5.67c-4.15-4.94-6.23-12.08-6.23-21.39c0-11.2,2.01-20,6.02-26.41c4.29-6.84,10.24-10.26,17.86-10.26
		c0.28,0,0.62,0,1.04,0c0.55,0.15,1.17,0.22,1.87,0.22c3.74,0.58,7.68,2.91,11.84,6.98c0.83-3.63,2.7-5.31,5.61-5.02
		c1.66,0.15,3.18,1.09,4.57,2.84c1.38,1.75,2.01,3.57,1.87,5.46c-0.56,6.55-0.38,14.59,0.52,24.12c0.9,9.53,2.73,15.9,5.5,19.1
		c0.83,1.02,1.8,1.53,2.91,1.53c4.43,0,9-5.31,13.7-15.93c2.08-4.51,4.01-9.89,5.81-16.15
		C280.89,339.42,281.41,338.77,282.17,338.33z M237.84,335.06c0.42-1.31,0.69-2.25,0.83-2.84l-0.42-0.44
		c-2.63-2.76-4.71-4.73-6.23-5.89c-1.52-1.16-3.19-1.82-4.98-1.96c-0.14,0-0.28,0-0.42,0c-0.28,0-0.49,0-0.62,0
		c-3.05,0-5.81,2.8-8.31,8.4c-2.49,5.6-3.74,12.48-3.74,20.62c0,5.97,0.79,10.55,2.39,13.75c1.59,3.2,3.43,4.8,5.5,4.8
		c1.52,0,3.32-2.04,5.4-6.11c0.14-0.14,0.28-0.36,0.42-0.66c0.42-0.87,0.83-1.82,1.25-2.84
		C231.12,356.66,234.1,347.72,237.84,335.06z"/>
	<path class="st3" d="M370.73,338.33c0.55,0.15,1,0.44,1.35,0.87c0.35,0.44,0.55,0.95,0.62,1.53c0.07,0.58,0.03,1.17-0.1,1.75
		c-2.22,6.4-4.71,12.51-7.48,18.33c-0.69,1.46-1.52,2.98-2.49,4.58c-0.69,1.31-1.32,2.48-1.87,3.49
		c-7.34,12.08-14.81,18.11-22.42,18.11c-8.17,0-15.64-4.51-22.43-13.53c-4.85-6.55-8.72-14.91-11.63-25.1
		c-3.32,8.88-4.43,19.72-3.32,32.52c0.42,2.91-0.69,4.8-3.32,5.67c-0.56,0.29-1.18,0.44-1.87,0.44c-1.38,0-2.77-0.51-4.15-1.53
		c-1.38-1.02-2.36-2.33-2.91-3.93v-0.22c-4.02-10.91-7.48-22.99-10.38-36.23c0-0.14-0.07-0.36-0.21-0.66
		c-4.84-21.97-7.27-40.88-7.27-56.74c0-22.26,2.01-39.79,6.02-52.6c2.36-7.42,5.4-13.17,9.14-17.24c4.29-4.65,9.34-6.98,15.16-6.98
		c8.17,0,14.19,4.95,18.06,14.84c2.77,7.13,4.15,16.44,4.15,27.93v1.09v0.44h-0.21c-0.28,17.17-4.85,35.14-13.71,53.91
		c-5.81,12.37-12.32,22.63-19.52,30.77c1.38,5.97,2.91,12.08,4.57,18.33c1.52-12.36,5.4-22.19,11.63-29.46
		c6.51-7.71,14.12-11.57,22.84-11.57c2.77,0,5.19,0.51,7.27,1.53c2.08,1.02,3.63,2.51,4.67,4.47c1.04,1.96,1.63,4.33,1.76,7.09
		c0.14,4.66-1.59,8.51-5.19,11.57c-4.71,4.08-11.63,5.75-20.77,5.02c7.75,20.08,16.12,30.12,25.12,30.12c2.49,0,5.16-1.53,8-4.58
		c2.83-3.06,5.36-6.69,7.58-10.91c0.55-0.87,1.04-1.82,1.45-2.84c0.14-0.29,0.28-0.58,0.41-0.87c0.14,0,0.21-0.07,0.21-0.22
		c2.63-5.38,4.98-11.13,7.06-17.24c0.28-0.87,0.83-1.53,1.66-1.96C369.07,337.9,369.9,337.9,370.73,338.33z M288.29,331.78
		c5.81-7.42,11-15.93,15.57-25.53c8.44-18.04,12.8-35.14,13.08-51.29c0-3.78-0.28-7.67-0.83-11.68c-0.56-4-1.32-7.78-2.28-11.35
		c-0.97-3.56-2.25-6.51-3.84-8.84c-1.59-2.33-3.29-3.49-5.09-3.49c-6.51,0-11.73,5.93-15.68,17.79
		c-3.95,11.86-5.92,27.39-5.92,46.59C283.31,298.83,284.97,314.76,288.29,331.78z M313,339.64c3.18,0.44,6.47,0.33,9.86-0.33
		c3.39-0.66,5.92-1.71,7.58-3.17c1.25-1.16,1.87-2.47,1.87-3.93c0-0.73-0.28-1.31-0.83-1.75c-1.53-1.45-4.43-1.82-8.72-1.09
		c-4.98,0.73-9.55,3.93-13.7,9.6C310.44,339.28,311.76,339.5,313,339.64z"/>
	<path class="st3" d="M423.99,338.33c1.87,1.02,2.32,2.55,1.35,4.58c-2.49,5.38-4.98,10.11-7.48,14.19
		c-2.49,4.07-4.91,7.57-7.27,10.48c-6.92,8.73-13.98,13.1-21.18,13.1c-8.58,0-15.37-5.31-20.35-15.93
		c-3.74-7.71-5.61-15.64-5.61-23.79c0-6.98,1.8-12.84,5.4-17.57c3.6-4.73,8.1-7.09,13.5-7.09c4.7,0,8.44,1.67,11.21,5.02
		c2.21,2.33,3.53,5.53,3.95,9.6c0,0.29,0,0.58,0,0.87V332c0,0.29,0,0.51,0,0.65c0,5.24-1.39,10.95-4.15,17.13
		c-2.77,6.19-5.95,11.6-9.55,16.26c3.04,3.93,6.02,5.89,8.93,5.89c5.12,0,11.56-5.96,19.31-17.9c2.49-4.07,5.05-8.8,7.68-14.19
		C420.7,337.82,422.12,337.32,423.99,338.33z M380.28,359.94c1.8-2.47,3.49-5.2,5.09-8.18c1.59-2.98,2.94-6.22,4.05-9.71
		c1.11-3.49,1.66-6.62,1.66-9.39v-0.22v-0.22c0-2.47-0.69-4.58-2.08-6.33c-0.69-0.58-1.59-0.87-2.7-0.87
		c-2.36,0-4.64,1.42-6.85,4.26c-2.22,2.84-3.32,6.73-3.32,11.68C376.12,347.93,377.51,354.26,380.28,359.94z"/>
	<path class="st3" d="M474.75,341.39v0.22c0,0.15,0,0.29,0,0.44v0.22l-0.21,0.22v0.22c-0.14,0.44-0.35,0.8-0.62,1.09
		c-0.28,0.15-0.56,0.29-0.83,0.44c-3.05,1.75-5.75,2.62-8.1,2.62c-1.25,0-2.35-0.22-3.32-0.66c-1.53-0.58-2.87-1.6-4.05-3.05
		c-1.18-1.45-2.01-2.76-2.49-3.93c-0.49-1.16-1.14-2.76-1.97-4.8c-1.52-4.36-2.77-6.55-3.74-6.55c-1.39,0-3.22,1.38-5.5,4.15
		c-2.28,2.76-4.46,6.26-6.54,10.48c-4.29,11.35-5.68,20.59-4.15,27.72c0.97,3.79,2.21,7.13,3.74,10.04
		c0.14,0.29,0.28,0.58,0.42,0.87c0.69,2.91-0.21,4.8-2.7,5.67c-0.42,0.14-0.9,0.22-1.45,0.22c-1.8,0-3.63-0.8-5.5-2.4
		c-1.87-1.6-3.29-3.78-4.26-6.55c-5.95-15.71-6.99-32.52-3.12-50.41c0.28-1.31,0.94-2.33,1.97-3.05c1.04-0.73,2.25-0.95,3.63-0.66
		c1.8,0.29,3.32,1.28,4.57,2.95c1.25,1.67,1.73,3.53,1.45,5.57c-0.42,2.77-0.69,5.75-0.83,8.95c2.35-6.69,5.12-12.15,8.31-16.37
		c4.01-5.24,8.1-7.86,12.25-7.86c2.08,0,3.81,0.36,5.19,1.09c1.38,0.73,2.49,1.78,3.32,3.16c0.83,1.38,1.45,2.55,1.87,3.49
		c0.42,0.95,0.83,2.22,1.25,3.82c0.83,3.2,1.77,5.49,2.8,6.88c1.04,1.38,2.94,2.22,5.71,2.51c0.14,0,0.28,0,0.42,0h0.21h0.21
		c0,0.15,0.07,0.22,0.21,0.22h0.21v0.22h0.21l0.21,0.22c0.14,0,0.21,0.08,0.21,0.22h0.21v0.22h0.21c0,0.15,0.03,0.22,0.1,0.22
		c0.07,0,0.1,0.04,0.1,0.11c0,0.07,0,0.18,0,0.33h0.21v0.22c0,0.15,0.03,0.26,0.1,0.33c0.07,0.07,0.1,0.18,0.1,0.33v0.22
		C474.75,341.1,474.75,341.24,474.75,341.39z"/>
</g>
</svg>
